<svg viewBox="0 0 56 56" fill="none" xmlns="http://www.w3.org/2000/svg">
  <defs>
    <linearGradient id="bg" x1="0" y1="0" x2="56" y2="56" gradientUnits="userSpaceOnUse">
      <stop offset="0%" stop-color="#1e1e2e"/>
      <stop offset="100%" stop-color="#0a0a0a"/>
    </linearGradient>
  </defs>
  <polygon points="28,1 52,15 52,41 28,55 4,41 4,15" fill="url(#bg)"/>
  <polygon points="28,1 52,15 52,41 28,55 4,41 4,15" fill="none" stroke="#E63946" stroke-width="1.5"/>
  <polygon points="28,6 47,17 47,39 28,50 9,39 9,17" fill="none" stroke="rgba(255,255,255,0.06)" stroke-width="0.75"/>
  <rect x="4" y="27" width="48" height="4" fill="#E63946" opacity="0.9"/>
  <line x1="12" y1="9" x2="28" y2="27" stroke="white" stroke-width="4.5" stroke-linecap="round"/>
  <line x1="44" y1="9" x2="28" y2="27" stroke="white" stroke-width="4.5" stroke-linecap="round"/>
  <line x1="28" y1="27" x2="28" y2="44" stroke="white" stroke-width="4.5" stroke-linecap="round"/>
  <circle cx="28" cy="27" r="3" fill="white"/>
  <circle cx="44" cy="37" r="1.5" fill="#E63946" opacity="0.8"/>
  <circle cx="39" cy="37" r="1.5" fill="#E63946" opacity="0.5"/>
  <circle cx="34" cy="37" r="1.5" fill="#E63946" opacity="0.25"/>
</svg>
